<svg version="1" xmlns="http://www.w3.org/2000/svg" width="1906.667" height="1906.667" viewBox="0 0 1430.000000 1430.000000" preserveAspectRatio="xMidYMid meet"><path d="M234.6 29.7c-.4.5-3.2 2.1-6.1 3.8-8.8 5-20.9 11.9-23 13.2-1.1.7-2.7 1.5-3.5 1.9-.8.4-4.2 2.4-7.5 4.4-3.3 2-6.7 3.9-7.5 4.3-.8.4-2.8 1.5-4.5 2.6-1.6 1-15.1 8.8-30 17.3-14.8 8.5-31 17.9-36 20.8-4.9 2.8-10.8 6.2-13 7.5-2.2 1.2-8 4.6-13 7.5-4.9 2.9-10.8 6.2-13 7.5C75.3 121.7 59.3 131 42 141c-17.3 10.1-32.6 18.9-34 19.6l-2.5 1.3v409c0 271.4.3 409.3 1 409.9.8.7 57.9 33.9 76.5 44.4 1.9 1.1 6.4 3.7 10 5.8 3.6 2.1 8.1 4.7 10 5.7 1.9 1.1 13.6 7.9 26 15 12.4 7.2 23.9 13.8 25.5 14.7 1.7.9 4.6 2.6 6.5 3.7 5.2 3.1 46.8 27.2 52 30.1 10 5.6 43.2 24.9 46.9 27.3 2.3 1.4 4.3 2.5 4.5 2.5.2 0 9.6 5.3 20.8 11.8 11.1 6.5 22.6 13.2 25.4 14.8 4.3 2.4 51.4 29.5 56.4 32.5.8.4 4.9 2.8 9 5.2 4.1 2.4 9.5 5.5 12 6.9 2.5 1.4 21.8 12.6 43 24.8 21.2 12.3 40.5 23.4 43 24.8 2.5 1.3 6.5 3.7 9 5.2 4.1 2.5 82.7 47.9 87.5 50.4 1.1.6 3.1 1.9 4.5 2.7 1.4.9 23.9 13.9 50 28.9 26.1 15 49.5 28.5 52 29.9 2.5 1.5 5.4 3.2 6.5 3.8 13.7 8.1 29.3 16.9 30.3 17.1.7.2 12.8-6.3 26.9-14.5 14.2-8.1 26.6-15.3 27.5-15.8 1-.6 11.5-6.6 23.4-13.5 11.9-6.9 23.5-13.6 25.8-14.9 2.2-1.3 23.1-13.3 46.3-26.7 23.2-13.4 43.7-25.2 45.5-26.3 1.8-1 10.3-5.9 18.8-10.8 8.5-5 28.8-16.7 45-26 16.2-9.4 34-19.6 39.5-22.8 9.4-5.4 51.3-29.6 58.1-33.5 5.8-3.3 55-31.8 81.4-47 14.6-8.5 27.6-16 29-16.7 1.4-.8 4.3-2.5 6.5-3.9 2.2-1.3 6.2-3.6 9-5 2.7-1.5 6.5-3.6 8.5-4.9 3.8-2.4 7.6-4.6 38-22.1 11.3-6.5 28.5-16.4 38.3-22.1 9.8-5.7 18.1-10.3 18.4-10.3.4 0 1.4-.6 2.2-1.4.9-.7 4.8-3.1 8.6-5.1 3.9-2.1 8.1-4.6 9.5-5.5 1.4-.9 5-3.1 8-4.7 6.5-3.6 20.7-11.7 34.5-19.8 5.5-3.2 13.6-7.9 18-10.4s8.9-5.1 10-5.8c1.1-.7 2.7-1.5 3.5-1.9 1.7-.9 28.4-16.5 28.8-16.9.3-.2-14.6-9-32.7-19.3-2.5-1.4-6.8-3.8-9.5-5.5-2.8-1.6-6.7-3.9-8.6-5-1.9-1-15.2-8.7-29.5-17-14.3-8.2-28-16.1-30.5-17.5-5.3-3-58.8-33.8-61-35.2-3.5-2.2-17.9-10.5-23-13.3-3-1.7-7.9-4.5-10.8-6.4-2.9-1.8-5.5-3.3-5.8-3.3-.2 0-7.1-3.9-15.2-8.6-8.1-4.8-16.5-9.7-18.7-10.9-2.2-1.2-12.5-7.1-23-13.2-17.3-10-53.6-31-61-35.3-1.6-.9-11.8-6.8-22.5-13-20.1-11.6-62.5-36.1-68.3-39.4-1.7-1-12.2-7-23.2-13.4-11-6.3-23.1-13.3-26.8-15.4l-6.9-3.9-10.1 5.8c-5.6 3.2-10.6 6-11.2 6.2-.5.2-1.7.9-2.5 1.6-.8.7-3.9 2.6-6.8 4.1-2.9 1.6-6.1 3.3-7 3.9-3.9 2.3-17.9 10.4-21.2 12.3-1.9 1.1-10.7 6.1-19.5 11.2-26 15-61.7 35.6-65.5 37.8-20.7 11.8-83.9 48.4-85.3 49.4-1.7 1.2-.1 2.3 16.5 12 10 5.8 19.9 11.5 21.8 12.6 1.9 1.1 22.4 12.9 45.5 26.2 23.1 13.4 43.4 25.1 45 26 1.7 1 7.1 4.1 12 7 5 2.9 10.8 6.2 13 7.5 4.3 2.4 65.1 37.5 75 43.3 3.3 1.9 8.1 4.6 10.7 6.1l4.8 2.5-3.3 1.7c-3.3 1.7-14.4 8-32.2 18.4-5.5 3.2-13.6 7.9-18 10.4s-8.9 5.1-10 5.8c-1.1.7-2.7 1.5-3.5 1.9-.8.4-3.1 1.7-5 2.9s-19.7 11.5-39.5 22.9c-34.9 20.1-42.8 24.7-47 27.3-1.1.7-2.7 1.5-3.5 2-.8.4-7.4 4.1-14.5 8.3-7.2 4.2-13.7 7.9-14.5 8.3-.8.4-3 1.6-4.8 2.7-4.2 2.6-42.5 24.7-47.3 27.4l-3.6 2-20.2-11.7c-11.1-6.4-20.7-11.7-21.2-11.7s-.9-.5-.9-1c0-.6-.4-1-.9-1-.8 0-32.9-18.2-37.1-21-.8-.6-2.2-1.3-3-1.7-.8-.4-3.1-1.6-5-2.8-1.9-1.2-5.5-3.3-8-4.7-2.5-1.4-13-7.4-23.5-13.5-10.4-6.1-33.6-19.4-51.5-29.8-17.9-10.3-35.4-20.4-39-22.5-3.6-2.1-16.8-9.7-29.5-17-22-12.7-36.9-21.4-44.5-25.9-1.9-1.1-4.1-2.4-4.9-2.8-.8-.3-6.4-3.5-12.5-7.1-6.1-3.5-23-13.3-37.6-21.7-14.6-8.4-40.7-23.5-58-33.5-17.3-10.1-33.1-19.2-35-20.2-1.9-1.1-12.8-7.4-24.2-14l-20.8-12V295.9l2.3 1.2c1.6.9 85.7 49.4 121.2 69.9 1.7 1 6.4 3.7 10.5 6 8.4 4.8 35.7 20.5 38 21.9.8.5 8 4.7 15.9 9.3 8 4.6 15.6 9 17 9.8 1.4.9 7.3 4.2 13.1 7.5 5.8 3.2 11.6 6.6 13 7.5 1.4 1 5 3.1 8 4.8 3 1.6 19.7 11.2 37 21.2 17.3 10.1 33.1 19.2 35 20.2 1.9 1.1 9.1 5.3 16 9.3 6.9 3.9 14.5 8.3 17 9.7 2.5 1.4 21.4 12.3 42 24.3 20.6 11.9 39.3 22.7 41.5 24 2.2 1.2 6.4 3.6 9.3 5.4 2.9 1.7 5.7 3.1 6.2 3.1.6 0 1 .4 1 1 0 .5.4 1 .9 1s6.4 3.2 13.2 7.2c6.8 3.9 14 8 15.9 9l3.5 1.9 11.8-6.8c6.5-3.7 13.3-7.6 15-8.6 1.8-1.1 11.1-6.4 20.7-12 9.6-5.5 24.5-14.1 33-19 8.5-5 18-10.4 21-12 3-1.6 6.2-3.6 7.1-4.3.8-.8 1.9-1.4 2.2-1.4.4 0 4.4-2.2 8.9-4.9 9.1-5.3 27.1-15.7 47.8-27.6 7.4-4.3 18.9-10.9 25.5-14.8 6.6-3.8 14-8.1 16.5-9.5 6.4-3.6 28-16.1 77.5-44.7 23.7-13.7 47.1-27.2 52-30 5-2.8 16.2-9.3 25-14.5 8.8-5.1 18-10.4 20.5-11.8 5.3-3 77.8-44.8 86.3-49.8 3.2-1.9 6-3.4 6.2-3.4.2 0 .4 58.4.4 129.7 0 71.4 0 131.4.1 133.5v3.6l18.8 10.8c10.3 6 19.9 11.6 21.3 12.4 5 2.8 45.4 26.2 46.9 27.1 1.4.8 27.7 16 34.5 19.9 1.7.9 16.5 9.5 33 19 26.2 15.1 38.4 22.2 52.5 30.2 1.9 1.1 7.6 4.5 12.6 7.4 5 2.9 9.8 5.6 10.5 5.9 1.2.4 1.4-39.6 1.3-265.8 0-146.5-.4-266.8-.8-267.5-.4-.7-2.8-2.4-5.4-3.7-2.6-1.4-5.4-3-6.2-3.5-1.7-1.1-15.7-9.3-21-12.2-3-1.7-82.5-47.5-93-53.6-8.5-5-21.8-12.6-25.5-14.7-2.2-1.3-10.7-6.2-19-11-8.2-4.8-17.1-9.9-19.6-11.4-9.7-5.5-28.5-16.3-30.4-17.4-7.1-4.4-9.6-5.7-10.4-5.7-.6 0-9.7 5-20.3 11.1-10.6 6.1-20.8 12-22.6 13-1.8 1.1-9.3 5.4-16.5 9.6-20.8 12-50.9 29.4-54.7 31.5-8.6 5-67.7 38.9-69 39.8-2.7 1.6-44.9 26-67.5 39-12.1 7-26.4 15.2-31.7 18.3-18 10.4-29.3 17-32.3 18.7-1.6.9-13.3 7.7-26 15-12.6 7.3-24.4 14.1-26.1 15-1.6 1-9 5.2-16.4 9.5-7.4 4.3-14.8 8.5-16.4 9.5-1.7.9-8.7 5-15.6 9s-14.1 8.1-16 9.2c-1.9 1.1-12.9 7.5-24.5 14.1-11.5 6.7-21.6 12-22.5 12-.9-.1-4.9-2.1-9-4.6-6.8-4-36.9-21.4-44.7-25.8-1.8-1-11.9-6.9-22.5-13s-28.3-16.3-39.3-22.7c-29.7-17.1-138.9-80.1-171-98.7-15.4-8.9-30-17.3-32.5-18.7-2.5-1.4-14.4-8.3-26.5-15.3s-23.8-13.8-26-15c-2.2-1.2-12.3-7-22.5-12.9-10.2-6-20.3-11.8-22.5-13.1-2.2-1.2-12.8-7.3-23.5-13.5-40.1-23.2-37.7-22-39.4-20.3z" fill="#000" stroke="none"/></svg>